# xmcd
#
# Track frame offsets: 
#        150
#        14905
#        30839
#        47218
#        66362
#        83063
#        100131
#        110401
#        127530
#        140546
#        156170
#
# Disc length: 2249 seconds
#
# Revision: 0
# Processed by: cddbd v1.5.2PL0 Copyright (c) Steve Scherf et al.
# Submitted via: ExactAudioCopyFreeDBPlugin 1.0
#
DISCID=8908c70b
DTITLE=Carl Mann - Legacy
DYEAR=1900
DGENRE=Country/Spiritual
TTITLE0=Strait And Narrow Road
TTITLE1=I Saw The Light
TTITLE2=I Can't Make It Lord Without You
TTITLE3=Long Black Train
TTITLE4=I Can Hear The Angels Singing
TTITLE5=You're Invited To My Mansion
TTITLE6=Jesus Jesus
TTITLE7=I'm Not Mine Anymore
TTITLE8=Work To Be Done
TTITLE9=What Heaven Means To Me
TTITLE10=Wadin' Through Deep Waters
EXTD=
EXTT0=
EXTT1=
EXTT2=
EXTT3=
EXTT4=
EXTT5=
EXTT6=
EXTT7=
EXTT8=
EXTT9=
EXTT10=
PLAYORDER=
